<svg width="295" height="109" viewBox="0 0 295 109" fill="none" xmlns="http://www.w3.org/2000/svg">
<path d="M2.03645 79V66.2031H5.81575C7.18684 66.2031 8.22688 66.4873 8.93587 67.0557C9.64485 67.6182 9.99934 68.4502 9.99934 69.5518C9.99934 70.2139 9.8177 70.791 9.45442 71.2832C9.097 71.7695 8.60481 72.1182 7.97786 72.3291C8.722 72.4932 9.31966 72.8594 9.77083 73.4277C10.2279 73.9961 10.4564 74.6523 10.4564 75.3965C10.4564 76.5273 10.0902 77.4121 9.35774 78.0508C8.63118 78.6836 7.61751 79 6.31673 79H2.03645ZM3.11751 72.8477V78.0859H6.36067C7.28645 78.0859 8.01888 77.8516 8.55794 77.3828C9.10286 76.9082 9.37532 76.252 9.37532 75.4141C9.37532 74.623 9.11458 73.999 8.59309 73.542C8.07747 73.0791 7.36263 72.8477 6.44856 72.8477H3.11751ZM3.11751 71.9424H6.07063C6.97298 71.9248 7.67024 71.7139 8.16243 71.3096C8.66048 70.8994 8.9095 70.3047 8.9095 69.5254C8.9095 68.7051 8.65169 68.1016 8.13606 67.7148C7.6263 67.3223 6.85286 67.126 5.81575 67.126H3.11751V71.9424ZM20.215 78.2881C20.9475 78.2881 21.5598 78.083 22.052 77.6729C22.55 77.2568 22.8195 76.7207 22.8606 76.0645H23.8713C23.842 76.6445 23.6604 77.1748 23.3264 77.6553C22.9924 78.1299 22.5471 78.502 21.9904 78.7715C21.4397 79.041 20.8479 79.1758 20.215 79.1758C18.967 79.1758 17.9768 78.7422 17.2443 77.875C16.5178 77.0078 16.1545 75.8418 16.1545 74.377V74.0605C16.1545 73.123 16.3186 72.2939 16.6467 71.5732C16.9748 70.8525 17.4436 70.2959 18.0529 69.9033C18.6682 69.5107 19.3859 69.3145 20.2063 69.3145C21.2492 69.3145 22.1076 69.625 22.7815 70.2461C23.4611 70.8672 23.8244 71.6846 23.8713 72.6982H22.8606C22.8137 71.9541 22.5441 71.3535 22.052 70.8965C21.5656 70.4395 20.9504 70.2109 20.2063 70.2109C19.257 70.2109 18.5188 70.5537 17.9914 71.2393C17.4699 71.9248 17.2092 72.8857 17.2092 74.1221V74.4297C17.2092 75.6426 17.4699 76.5889 17.9914 77.2686C18.5188 77.9482 19.26 78.2881 20.215 78.2881ZM33.5333 79.1758C32.7247 79.1758 31.9923 78.9766 31.336 78.5781C30.6856 78.1797 30.1788 77.626 29.8155 76.917C29.4522 76.2021 29.2706 75.4023 29.2706 74.5176V74.1396C29.2706 73.2256 29.4464 72.4023 29.7979 71.6699C30.1554 70.9375 30.6505 70.3633 31.2833 69.9473C31.9161 69.5254 32.6016 69.3145 33.3399 69.3145C34.4942 69.3145 35.4083 69.71 36.0821 70.501C36.7618 71.2861 37.1016 72.3613 37.1016 73.7266V74.3154H30.3165V74.5176C30.3165 75.5957 30.6241 76.4951 31.2393 77.2158C31.8604 77.9307 32.6397 78.2881 33.5772 78.2881C34.1397 78.2881 34.6349 78.1855 35.0626 77.9805C35.4962 77.7754 35.8888 77.4473 36.2403 76.9961L36.8995 77.4971C36.1261 78.6162 35.004 79.1758 33.5333 79.1758ZM33.3399 70.2109C32.5489 70.2109 31.8809 70.501 31.336 71.0811C30.797 71.6611 30.4688 72.4404 30.3516 73.4189H36.0557V73.3047C36.0265 72.3906 35.7657 71.6465 35.2735 71.0723C34.7813 70.498 34.1368 70.2109 33.3399 70.2109ZM48.9433 70.3955H44.1357V79H43.081V69.4902H48.9433V70.3955ZM53.7713 78.1123L54.2372 77.5059C54.9754 76.5039 55.4002 75.0391 55.5116 73.1113L55.6786 69.4902H61.2948V78.1123H62.2791V81.7949H61.2332V79H54.0877V81.7949H53.077L53.0858 78.1123H53.7713ZM54.9842 78.1123H60.2401V70.4746H56.6805L56.5663 72.9443C56.4608 75.2119 55.9334 76.9346 54.9842 78.1123ZM74.1824 79C74.0769 78.7012 74.0095 78.2588 73.9802 77.6729C73.6111 78.1533 73.1394 78.5254 72.5652 78.7891C71.9968 79.0469 71.3933 79.1758 70.7546 79.1758C69.8406 79.1758 69.0993 78.9209 68.531 78.4111C67.9685 77.9014 67.6872 77.2568 67.6872 76.4775C67.6872 75.5518 68.071 74.8193 68.8386 74.2803C69.612 73.7412 70.6872 73.4717 72.0642 73.4717H73.9714V72.3906C73.9714 71.7109 73.7605 71.1777 73.3386 70.791C72.9226 70.3984 72.3132 70.2021 71.5105 70.2021C70.7781 70.2021 70.1716 70.3896 69.6911 70.7646C69.2107 71.1396 68.9704 71.5908 68.9704 72.1182L67.9157 72.1094C67.9157 71.3535 68.2673 70.7002 68.9704 70.1494C69.6736 69.5928 70.5378 69.3145 71.5632 69.3145C72.6238 69.3145 73.4587 69.5811 74.0681 70.1143C74.6833 70.6416 74.9997 71.3799 75.0173 72.3291V76.8291C75.0173 77.749 75.114 78.4375 75.3074 78.8945V79H74.1824ZM70.8777 78.2441C71.5808 78.2441 72.2077 78.0742 72.7585 77.7344C73.3152 77.3945 73.7195 76.9404 73.9714 76.3721V74.2803H72.0906C71.0417 74.292 70.2214 74.4854 69.6296 74.8604C69.0378 75.2295 68.7419 75.7393 68.7419 76.3896C68.7419 76.9229 68.9382 77.3652 69.3308 77.7168C69.7292 78.0684 70.2449 78.2441 70.8777 78.2441ZM90.061 79V69.4902H93.5503C94.7573 69.4902 95.6831 69.707 96.3276 70.1406C96.9722 70.5684 97.2944 71.1982 97.2944 72.0303C97.2944 72.5049 97.1509 72.9297 96.8638 73.3047C96.5766 73.6738 96.1577 73.9434 95.6069 74.1133C96.228 74.2305 96.7261 74.4971 97.1011 74.9131C97.4819 75.3291 97.6723 75.8125 97.6723 76.3633C97.6723 77.2012 97.3618 77.8516 96.7407 78.3145C96.1255 78.7715 95.2524 79 94.1216 79H90.061ZM91.1069 74.623V78.1211H94.1567C94.9477 78.1211 95.5571 77.9688 95.9848 77.6641C96.4126 77.3594 96.6264 76.9199 96.6264 76.3457C96.6264 75.8184 96.4126 75.3994 95.9848 75.0889C95.5571 74.7783 94.9477 74.623 94.1567 74.623H91.1069ZM91.1069 73.7441H93.77C95.4223 73.7207 96.2485 73.1582 96.2485 72.0566C96.2485 71.4766 96.02 71.0547 95.563 70.791C95.1118 70.5215 94.4409 70.3867 93.5503 70.3867H91.1069V73.7441ZM112.206 69.4902H113.261V78.1123H118.385V69.4902H119.44V78.1123H120.406L120.327 81.8213H119.361V79H112.206V69.4902ZM129.937 79.1758C129.128 79.1758 128.396 78.9766 127.739 78.5781C127.089 78.1797 126.582 77.626 126.219 76.917C125.856 76.2021 125.674 75.4023 125.674 74.5176V74.1396C125.674 73.2256 125.85 72.4023 126.201 71.6699C126.559 70.9375 127.054 70.3633 127.687 69.9473C128.319 69.5254 129.005 69.3145 129.743 69.3145C130.898 69.3145 131.812 69.71 132.485 70.501C133.165 71.2861 133.505 72.3613 133.505 73.7266V74.3154H126.72V74.5176C126.72 75.5957 127.027 76.4951 127.643 77.2158C128.264 77.9307 129.043 78.2881 129.981 78.2881C130.543 78.2881 131.038 78.1855 131.466 77.9805C131.9 77.7754 132.292 77.4473 132.644 76.9961L133.303 77.4971C132.529 78.6162 131.407 79.1758 129.937 79.1758ZM129.743 70.2109C128.952 70.2109 128.284 70.501 127.739 71.0811C127.2 71.6611 126.872 72.4404 126.755 73.4189H132.459V73.3047C132.43 72.3906 132.169 71.6465 131.677 71.0723C131.185 70.498 130.54 70.2109 129.743 70.2109ZM146.727 79H145.672V74.6406H140.548V79H139.493V69.4902H140.548V73.7529H145.672V69.4902H146.727V79ZM160.247 70.3867H156.784V79H155.729V70.3867H152.398V69.4902H160.247V70.3867ZM173.495 74.3418C173.495 75.8242 173.167 77.002 172.511 77.875C171.854 78.7422 170.975 79.1758 169.874 79.1758C168.573 79.1758 167.577 78.7188 166.886 77.8047V82.6562H165.84V69.4902H166.815L166.868 70.835C167.553 69.8213 168.547 69.3145 169.847 69.3145C170.984 69.3145 171.875 69.7451 172.519 70.6064C173.17 71.4678 173.495 72.6631 173.495 74.1924V74.3418ZM172.44 74.1572C172.44 72.9443 172.191 71.9863 171.693 71.2832C171.195 70.5801 170.501 70.2285 169.61 70.2285C168.966 70.2285 168.412 70.3838 167.949 70.6943C167.486 71.0049 167.132 71.4561 166.886 72.0479V76.6094C167.137 77.1543 167.498 77.5703 167.967 77.8574C168.435 78.1445 168.989 78.2881 169.628 78.2881C170.512 78.2881 171.201 77.9365 171.693 77.2334C172.191 76.5244 172.44 75.499 172.44 74.1572ZM183.385 79.1758C182.577 79.1758 181.844 78.9766 181.188 78.5781C180.538 78.1797 180.031 77.626 179.668 76.917C179.304 76.2021 179.123 75.4023 179.123 74.5176V74.1396C179.123 73.2256 179.298 72.4023 179.65 71.6699C180.007 70.9375 180.503 70.3633 181.135 69.9473C181.768 69.5254 182.454 69.3145 183.192 69.3145C184.346 69.3145 185.26 69.71 185.934 70.501C186.614 71.2861 186.954 72.3613 186.954 73.7266V74.3154H180.169V74.5176C180.169 75.5957 180.476 76.4951 181.091 77.2158C181.713 77.9307 182.492 78.2881 183.429 78.2881C183.992 78.2881 184.487 78.1855 184.915 77.9805C185.348 77.7754 185.741 77.4473 186.092 76.9961L186.752 77.4971C185.978 78.6162 184.856 79.1758 183.385 79.1758ZM183.192 70.2109C182.401 70.2109 181.733 70.501 181.188 71.0811C180.649 71.6611 180.321 72.4404 180.204 73.4189H185.908V73.3047C185.879 72.3906 185.618 71.6465 185.126 71.0723C184.633 70.498 183.989 70.2109 183.192 70.2109ZM204.634 78.2881C205.367 78.2881 205.979 78.083 206.471 77.6729C206.969 77.2568 207.239 76.7207 207.28 76.0645H208.29C208.261 76.6445 208.079 77.1748 207.746 77.6553C207.412 78.1299 206.966 78.502 206.41 78.7715C205.859 79.041 205.267 79.1758 204.634 79.1758C203.386 79.1758 202.396 78.7422 201.663 77.875C200.937 77.0078 200.574 75.8418 200.574 74.377V74.0605C200.574 73.123 200.738 72.2939 201.066 71.5732C201.394 70.8525 201.863 70.2959 202.472 69.9033C203.087 69.5107 203.805 69.3145 204.625 69.3145C205.668 69.3145 206.527 69.625 207.201 70.2461C207.88 70.8672 208.244 71.6846 208.29 72.6982H207.28C207.233 71.9541 206.963 71.3535 206.471 70.8965C205.985 70.4395 205.37 70.2109 204.625 70.2109C203.676 70.2109 202.938 70.5537 202.411 71.2393C201.889 71.9248 201.628 72.8857 201.628 74.1221V74.4297C201.628 75.6426 201.889 76.5889 202.411 77.2686C202.938 77.9482 203.679 78.2881 204.634 78.2881ZM213.69 74.1045C213.69 73.1904 213.866 72.3672 214.217 71.6348C214.574 70.9023 215.075 70.334 215.72 69.9297C216.37 69.5195 217.106 69.3145 217.926 69.3145C219.192 69.3145 220.217 69.7598 221.002 70.6504C221.787 71.5352 222.18 72.71 222.18 74.1748V74.3945C222.18 75.3145 222.001 76.1436 221.644 76.8818C221.292 77.6143 220.794 78.1797 220.15 78.5781C219.505 78.9766 218.77 79.1758 217.944 79.1758C216.684 79.1758 215.658 78.7334 214.867 77.8486C214.082 76.958 213.69 75.7803 213.69 74.3154V74.1045ZM214.744 74.3945C214.744 75.5312 215.037 76.4658 215.623 77.1982C216.215 77.9248 216.989 78.2881 217.944 78.2881C218.893 78.2881 219.66 77.9248 220.246 77.1982C220.838 76.4658 221.134 75.502 221.134 74.3066V74.1045C221.134 73.3779 220.999 72.7129 220.73 72.1094C220.46 71.5059 220.082 71.04 219.596 70.7119C219.11 70.3779 218.553 70.2109 217.926 70.2109C216.989 70.2109 216.224 70.5801 215.632 71.3184C215.04 72.0508 214.744 73.0117 214.744 74.2012V74.3945ZM232.062 70.123C233.269 70.123 234.247 70.5186 234.997 71.3096C235.747 72.0947 236.122 73.1377 236.122 74.4385V74.667C236.122 75.5283 235.949 76.3047 235.604 76.9961C235.264 77.6816 234.772 78.2178 234.127 78.6045C233.488 78.9854 232.753 79.1758 231.921 79.1758C230.667 79.1758 229.651 78.7598 228.871 77.9277C228.098 77.0898 227.711 75.9736 227.711 74.5791V73.7354C227.711 71.7666 228.086 70.1934 228.836 69.0156C229.586 67.8379 230.653 67.1348 232.035 66.9062C232.908 66.7656 233.521 66.5752 233.872 66.335C234.23 66.0947 234.408 65.7666 234.408 65.3506H235.314C235.314 65.8428 235.211 66.25 235.006 66.5723C234.801 66.8945 234.493 67.1553 234.083 67.3545C233.673 67.5479 233.046 67.7119 232.202 67.8467C231.236 67.999 230.456 68.4121 229.864 69.0859C229.278 69.7539 228.898 70.6504 228.722 71.7754C229.097 71.2832 229.566 70.8848 230.128 70.5801C230.696 70.2754 231.341 70.123 232.062 70.123ZM228.766 74.4473V74.667C228.766 75.7393 229.056 76.6123 229.636 77.2861C230.216 77.9541 230.978 78.2881 231.921 78.2881C232.87 78.2881 233.632 77.9512 234.206 77.2773C234.78 76.5977 235.068 75.707 235.068 74.6055V74.377C235.068 73.3867 234.775 72.5781 234.189 71.9512C233.609 71.3242 232.847 71.0107 231.903 71.0107C230.96 71.0107 230.201 71.3301 229.627 71.9688C229.053 72.6016 228.766 73.4277 228.766 74.4473ZM243.174 72.9443H245.916C246.619 72.9443 247.234 73.0732 247.762 73.3311C248.295 73.583 248.696 73.9346 248.966 74.3857C249.241 74.8369 249.379 75.3613 249.379 75.959C249.379 76.8789 249.063 77.6172 248.43 78.1738C247.803 78.7246 246.953 79 245.881 79H242.128V69.4902H243.174V72.9443ZM243.174 73.8408V78.1123H245.898C246.654 78.1123 247.246 77.9219 247.674 77.541C248.107 77.1602 248.324 76.6387 248.324 75.9766C248.324 75.3438 248.113 74.834 247.691 74.4473C247.275 74.0547 246.704 73.8525 245.978 73.8408H243.174ZM252.605 79H251.55V69.4902H252.605V79ZM266.23 70.3867H262.768V79H261.713V70.3867H258.382V69.4902H266.23V70.3867ZM278.081 69.4902H279.136V79H278.081V71.1865L272.948 79H271.902V69.4902H272.948V77.3125L278.081 69.4902ZM292.076 69.4902H293.131V79H292.076V71.1865L286.943 79H285.897V69.4902H286.943V77.3125L292.076 69.4902ZM292.023 66.0625C292.023 66.7363 291.792 67.2812 291.329 67.6973C290.872 68.1133 290.257 68.3213 289.483 68.3213C288.721 68.3213 288.106 68.1162 287.637 67.7061C287.174 67.29 286.943 66.7422 286.943 66.0625H287.84C287.84 66.5488 287.983 66.9209 288.27 67.1787C288.563 67.4365 288.967 67.5654 289.483 67.5654C289.999 67.5654 290.4 67.4307 290.687 67.1611C290.98 66.8916 291.127 66.5254 291.127 66.0625H292.023Z" fill="#F0F0F0"/>
<path d="M44.0847 27.8203V58.125H48.7722V60H34.8269V58.125H39.5144V27.8203H34.8269V25.9453H48.7722V27.8203H44.0847ZM48.7994 25.9453H76.2681L76.8306 36.0469H75.19C74.9712 34.2969 74.69 32.8828 74.3462 31.8047C74.0025 30.7266 73.5103 29.8984 72.8697 29.3203C72.2447 28.7266 71.4322 28.3281 70.4322 28.125C69.4322 27.9219 68.1744 27.8203 66.6587 27.8203H64.7603V58.125H69.9166V60H55.0337V58.125H60.19V27.8203H58.4087C57.3931 27.8203 56.4947 27.8594 55.7134 27.9375C54.9322 28.0156 54.2447 28.1641 53.6509 28.3828C53.0728 28.6016 52.5728 28.9062 52.1509 29.2969C51.7291 29.6875 51.3697 30.1875 51.0728 30.7969C50.7759 31.4062 50.5181 32.1406 50.2994 33C50.0962 33.8594 49.9166 34.875 49.7603 36.0469H48.1197L48.7994 25.9453ZM94.0178 27.8203V58.125H98.7053V60H84.76V58.125H89.4475V27.8203H84.76V25.9453H98.7053V27.8203H94.0178ZM99.0137 49.8047H100.654C100.826 51.5859 101.17 53.0703 101.686 54.2578C102.201 55.4453 102.834 56.3906 103.584 57.0938C104.35 57.7969 105.217 58.2969 106.186 58.5938C107.17 58.875 108.209 59.0156 109.303 59.0156C110.615 59.0156 111.732 58.8516 112.654 58.5234C113.592 58.1953 114.357 57.7422 114.951 57.1641C115.561 56.5703 115.998 55.8672 116.264 55.0547C116.545 54.2266 116.686 53.3203 116.686 52.3359C116.686 51.1172 116.482 50.1172 116.076 49.3359C115.67 48.5391 115.1 47.8672 114.365 47.3203C113.647 46.7578 112.779 46.2734 111.764 45.8672C110.748 45.4609 109.631 45.0391 108.412 44.6016C107.193 44.1641 106.029 43.7031 104.92 43.2188C103.826 42.7344 102.857 42.1328 102.014 41.4141C101.17 40.6953 100.498 39.8203 99.9981 38.7891C99.5137 37.7422 99.2716 36.4453 99.2716 34.8984C99.2716 33.4453 99.5059 32.1172 99.9747 30.9141C100.443 29.7109 101.139 28.6875 102.061 27.8438C102.982 26.9844 104.123 26.3203 105.482 25.8516C106.857 25.3828 108.451 25.1484 110.264 25.1484C110.982 25.1484 111.725 25.1875 112.49 25.2656C113.256 25.3281 114.014 25.4297 114.764 25.5703C115.529 25.7109 116.279 25.8828 117.014 26.0859C117.748 26.2734 118.443 26.4844 119.1 26.7188L119.381 35.2266H117.74C117.6 33.5391 117.287 32.1641 116.803 31.1016C116.318 30.0391 115.725 29.2109 115.022 28.6172C114.334 28.0078 113.561 27.5938 112.701 27.375C111.857 27.1406 110.99 27.0234 110.1 27.0234C108.912 27.0234 107.881 27.1719 107.006 27.4688C106.131 27.75 105.404 28.1641 104.826 28.7109C104.248 29.2422 103.811 29.8984 103.514 30.6797C103.232 31.4453 103.092 32.3125 103.092 33.2812C103.092 34.4375 103.295 35.3984 103.701 36.1641C104.107 36.9297 104.678 37.5938 105.412 38.1562C106.162 38.7031 107.053 39.1953 108.084 39.6328C109.131 40.0547 110.279 40.5 111.529 40.9688C112.67 41.4062 113.787 41.875 114.881 42.375C115.99 42.8594 116.975 43.4766 117.834 44.2266C118.709 44.9609 119.412 45.875 119.943 46.9688C120.475 48.0469 120.74 49.3906 120.74 51C120.74 52.5625 120.467 53.9531 119.92 55.1719C119.389 56.3906 118.615 57.4141 117.6 58.2422C116.6 59.0703 115.373 59.7031 113.92 60.1406C112.467 60.5781 110.826 60.7969 108.998 60.7969C108.201 60.7969 107.373 60.7578 106.514 60.6797C105.67 60.6016 104.826 60.4844 103.982 60.3281C103.154 60.1719 102.342 59.9922 101.545 59.7891C100.748 59.5859 100.006 59.3516 99.3184 59.0859L99.0137 49.8047ZM158.412 60.3516H156.537L136.263 28.9219L136.146 28.9453V58.125H140.365V60H129.349V58.125H134.037V27.8203H129.349V25.9453H139.826L156.185 51.3047L156.302 51.2812V27.8203H151.615V25.9453H163.099V27.8203H158.412V60.3516ZM171.095 41.3906H174.166C175.213 41.3906 176.088 41.3516 176.791 41.2734C177.494 41.1953 178.056 40.9766 178.478 40.6172C178.916 40.2422 179.244 39.6719 179.463 38.9062C179.681 38.125 179.838 37.0312 179.931 35.625H181.595V49.5H179.931C179.853 48.0781 179.72 46.9609 179.533 46.1484C179.345 45.3203 179.041 44.6953 178.619 44.2734C178.197 43.8516 177.627 43.5859 176.908 43.4766C176.205 43.3672 175.291 43.3125 174.166 43.3125H171.095V58.125H177.306C178.525 58.125 179.595 58.0781 180.517 57.9844C181.439 57.8906 182.244 57.7188 182.931 57.4688C183.619 57.2188 184.205 56.8672 184.689 56.4141C185.189 55.9609 185.619 55.375 185.978 54.6562C186.338 53.9375 186.642 53.0625 186.892 52.0312C187.142 51 187.377 49.7812 187.595 48.375H189.236L188.767 60H161.838V58.125H166.525V27.8203H161.838V25.9453H188.181L188.65 35.3438H187.009C186.775 33.7812 186.486 32.5156 186.142 31.5469C185.798 30.5625 185.314 29.7969 184.689 29.25C184.08 28.6875 183.275 28.3125 182.275 28.125C181.291 27.9219 180.041 27.8203 178.525 27.8203H171.095V41.3906ZM212.63 42.5625L205.857 60.3516H204.052L192.38 27.8203H187.74V25.9453H201.404V27.8203H197.232L206.279 52.9453H206.372L211.552 39.4453L207.38 27.8203H203.443V25.9453H217.107V27.8203H212.232L221.279 52.9453H221.372L231.005 27.8203H226.318V25.9453H237.497V27.8203H233.279L220.857 60.3516H219.052L212.724 42.5625H212.63ZM235.392 49.8047H237.033C237.204 51.5859 237.548 53.0703 238.064 54.2578C238.579 55.4453 239.212 56.3906 239.962 57.0938C240.728 57.7969 241.595 58.2969 242.564 58.5938C243.548 58.875 244.587 59.0156 245.681 59.0156C246.993 59.0156 248.111 58.8516 249.033 58.5234C249.97 58.1953 250.736 57.7422 251.329 57.1641C251.939 56.5703 252.376 55.8672 252.642 55.0547C252.923 54.2266 253.064 53.3203 253.064 52.3359C253.064 51.1172 252.861 50.1172 252.454 49.3359C252.048 48.5391 251.478 47.8672 250.743 47.3203C250.025 46.7578 249.158 46.2734 248.142 45.8672C247.126 45.4609 246.009 45.0391 244.79 44.6016C243.572 44.1641 242.408 43.7031 241.298 43.2188C240.204 42.7344 239.236 42.1328 238.392 41.4141C237.548 40.6953 236.876 39.8203 236.376 38.7891C235.892 37.7422 235.65 36.4453 235.65 34.8984C235.65 33.4453 235.884 32.1172 236.353 30.9141C236.822 29.7109 237.517 28.6875 238.439 27.8438C239.361 26.9844 240.501 26.3203 241.861 25.8516C243.236 25.3828 244.829 25.1484 246.642 25.1484C247.361 25.1484 248.103 25.1875 248.868 25.2656C249.634 25.3281 250.392 25.4297 251.142 25.5703C251.908 25.7109 252.658 25.8828 253.392 26.0859C254.126 26.2734 254.822 26.4844 255.478 26.7188L255.759 35.2266H254.118C253.978 33.5391 253.665 32.1641 253.181 31.1016C252.697 30.0391 252.103 29.2109 251.4 28.6172C250.712 28.0078 249.939 27.5938 249.079 27.375C248.236 27.1406 247.368 27.0234 246.478 27.0234C245.29 27.0234 244.259 27.1719 243.384 27.4688C242.509 27.75 241.783 28.1641 241.204 28.7109C240.626 29.2422 240.189 29.8984 239.892 30.6797C239.611 31.4453 239.47 32.3125 239.47 33.2812C239.47 34.4375 239.673 35.3984 240.079 36.1641C240.486 36.9297 241.056 37.5938 241.79 38.1562C242.54 38.7031 243.431 39.1953 244.462 39.6328C245.509 40.0547 246.658 40.5 247.908 40.9688C249.048 41.4062 250.165 41.875 251.259 42.375C252.368 42.8594 253.353 43.4766 254.212 44.2266C255.087 44.9609 255.79 45.875 256.322 46.9688C256.853 48.0469 257.118 49.3906 257.118 51C257.118 52.5625 256.845 53.9531 256.298 55.1719C255.767 56.3906 254.993 57.4141 253.978 58.2422C252.978 59.0703 251.751 59.7031 250.298 60.1406C248.845 60.5781 247.204 60.7969 245.376 60.7969C244.579 60.7969 243.751 60.7578 242.892 60.6797C242.048 60.6016 241.204 60.4844 240.361 60.3281C239.533 60.1719 238.72 59.9922 237.923 59.7891C237.126 59.5859 236.384 59.3516 235.697 59.0859L235.392 49.8047Z" fill="#F0F0F0"/>
<g style="mix-blend-mode:color-dodge">
<path d="M77 40H130V46H77V40Z" fill="#FF5959"/>
</g>
<rect x="89" y="40" width="6" height="6" fill="#FF503A" fill-opacity="0.64"/>
<rect x="100" y="40" width="20" height="6" fill="#FF5139" fill-opacity="0.64"/>
<rect x="13" y="63" width="256" height="1" fill="white" fill-opacity="0.7"/>
</svg>
